<mxfile host="app.diagrams.net" modified="2020-06-08T05:08:21.206Z" agent="5.0 (Macintosh; Intel Mac OS X 10_15_4) AppleWebKit/537.36 (KHTML, like Gecko) Chrome/83.0.4103.61 Safari/537.36" etag="xY2VGh1ufcuk5s0gcE58" version="13.1.12" type="github">
  <diagram id="7Y1ZfcdFTE9GypMD3FCE" name="Page-1">
    <mxGraphModel dx="1298" dy="834" grid="1" gridSize="10" guides="1" tooltips="1" connect="1" arrows="1" fold="1" page="1" pageScale="1" pageWidth="827" pageHeight="1169" math="0" shadow="0">
      <root>
        <mxCell id="0" />
        <mxCell id="1" parent="0" />
        <mxCell id="PumyFFIoUu43u3X-Bv62-1" value="数据库访问模块(model)" style="rounded=0;whiteSpace=wrap;html=1;fillColor=#f5f5f5;strokeColor=#666666;fontColor=#333333;" parent="1" vertex="1">
          <mxGeometry x="520" y="195" width="120" height="60" as="geometry" />
        </mxCell>
        <mxCell id="PumyFFIoUu43u3X-Bv62-2" value="mysql" style="shape=cylinder;whiteSpace=wrap;html=1;boundedLbl=1;backgroundOutline=1;fillColor=#dae8fc;strokeColor=#6c8ebf;" parent="1" vertex="1">
          <mxGeometry x="730" y="190" width="60" height="70" as="geometry" />
        </mxCell>
        <mxCell id="PumyFFIoUu43u3X-Bv62-3" value="HttpServer&lt;br&gt;(API模块)" style="rounded=0;whiteSpace=wrap;html=1;fillColor=#d5e8d4;strokeColor=#82b366;" parent="1" vertex="1">
          <mxGeometry x="80" y="180" width="120" height="80" as="geometry" />
        </mxCell>
        <mxCell id="PumyFFIoUu43u3X-Bv62-4" value="oauth" style="rounded=0;whiteSpace=wrap;html=1;fillColor=#d5e8d4;strokeColor=#82b366;" parent="1" vertex="1">
          <mxGeometry x="20" y="201" width="70" height="20" as="geometry" />
        </mxCell>
        <mxCell id="PumyFFIoUu43u3X-Bv62-6" value="updateUserProfile" style="rounded=0;whiteSpace=wrap;html=1;fillColor=#d5e8d4;strokeColor=#82b366;" parent="1" vertex="1">
          <mxGeometry x="20" y="221" width="70" height="20" as="geometry" />
        </mxCell>
        <mxCell id="PumyFFIoUu43u3X-Bv62-10" value="tcpServer&lt;br&gt;(grpc服务)" style="rounded=0;whiteSpace=wrap;html=1;fillColor=#d5e8d4;strokeColor=#82b366;" parent="1" vertex="1">
          <mxGeometry x="324" y="180" width="120" height="80" as="geometry" />
        </mxCell>
      </root>
    </mxGraphModel>
  </diagram>
</mxfile>
